# xmcd
#
# Track frame offsets: 
#        150
#        23096
#        42028
#        60761
#        77924
#        99699
#        123522
#        136662
#        156396
#        177272
#        192898
#        212007
#        227880
#        246461
#        260352
#
# Disc length: 3725 seconds
#
# Revision: 1
# Processed by: cddbd v1.5.2PL0 Copyright (c) Steve Scherf et al.
# Submitted via: ExactAudioCopy v1.0b3
#
DISCID=c70e8b0f
DTITLE=Александр Новиков - Золотая коллекция Диск 1
DYEAR=1996
DGENRE=Chanson
TTITLE0=Вези меня, извозчик...
TTITLE1=Я вышел родом из еврейского квартала
TTITLE2=Город древний
TTITLE3=Помнишь девочка?...
TTITLE4=Гостиничная история
TTITLE5=Улица Восточная
TTITLE6=В Екатеринбурге
TTITLE7=В захолустном ресторане
TTITLE8=Сватовство жигана
TTITLE9=На Восточной улице
TTITLE10=Дом под снос
TTITLE11=Городской роман
TTITLE12=Роза
TTITLE13=День рожденья
TTITLE14=На прощанье
EXTD=
EXTT0=
EXTT1=
EXTT2=
EXTT3=
EXTT4=
EXTT5=
EXTT6=
EXTT7=
EXTT8=
EXTT9=
EXTT10=
EXTT11=
EXTT12=
EXTT13=
EXTT14=
PLAYORDER=
